<mxfile host="Electron" modified="2023-04-25T00:00:47.535Z" agent="Mozilla/5.0 (Windows NT 10.0; Win64; x64) AppleWebKit/537.36 (KHTML, like Gecko) draw.io/21.1.2 Chrome/106.0.5249.199 Electron/21.4.3 Safari/537.36" etag="YU0R7mJrAl3NW7fHKuBK" version="21.1.2" type="device">
  <diagram name="Página-1" id="-37fiKzTfTFrvlBXJHoI">
    <mxGraphModel dx="4261" dy="1520" grid="0" gridSize="10" guides="1" tooltips="1" connect="1" arrows="1" fold="1" page="1" pageScale="1" pageWidth="1654" pageHeight="1169" math="0" shadow="0">
      <root>
        <mxCell id="0" />
        <mxCell id="1" parent="0" />
        <mxCell id="PfO3i7QkF-6IZszXyGAr-46" value="" style="group" vertex="1" connectable="0" parent="1">
          <mxGeometry x="1266" y="214" width="349.5" height="841" as="geometry" />
        </mxCell>
        <mxCell id="PfO3i7QkF-6IZszXyGAr-36" value="" style="rounded=1;whiteSpace=wrap;html=1;dashed=1;strokeColor=none;fillColor=#f5f5f5;fontColor=#333333;" vertex="1" parent="PfO3i7QkF-6IZszXyGAr-46">
          <mxGeometry width="349.5" height="841" as="geometry" />
        </mxCell>
        <mxCell id="nyhRWvDR_UMMaSh7DpGi-72" value="Serviços do Azure" style="text;html=1;strokeColor=none;fillColor=none;align=left;verticalAlign=middle;whiteSpace=wrap;rounded=0;" parent="PfO3i7QkF-6IZszXyGAr-46" vertex="1">
          <mxGeometry x="64" y="15" width="121" height="30" as="geometry" />
        </mxCell>
        <mxCell id="PfO3i7QkF-6IZszXyGAr-12" value="" style="group" vertex="1" connectable="0" parent="1">
          <mxGeometry x="71.5" y="476" width="440" height="280" as="geometry" />
        </mxCell>
        <mxCell id="PfO3i7QkF-6IZszXyGAr-32" value="" style="group" vertex="1" connectable="0" parent="PfO3i7QkF-6IZszXyGAr-12">
          <mxGeometry width="440" height="280" as="geometry" />
        </mxCell>
        <mxCell id="PfO3i7QkF-6IZszXyGAr-31" value="" style="group" vertex="1" connectable="0" parent="PfO3i7QkF-6IZszXyGAr-32">
          <mxGeometry width="440" height="280" as="geometry" />
        </mxCell>
        <mxCell id="YKMA5u9mrC6U9L60gqhi-1" value="" style="rounded=1;whiteSpace=wrap;html=1;dashed=1;fillColor=none;strokeColor=#29b6f2;" parent="PfO3i7QkF-6IZszXyGAr-31" vertex="1">
          <mxGeometry width="440" height="280" as="geometry" />
        </mxCell>
        <mxCell id="nyhRWvDR_UMMaSh7DpGi-11" value="VNET-HUB01" style="text;html=1;strokeColor=none;fillColor=none;align=left;verticalAlign=middle;whiteSpace=wrap;rounded=0;" parent="PfO3i7QkF-6IZszXyGAr-31" vertex="1">
          <mxGeometry x="20.5" y="244" width="96.5" height="30" as="geometry" />
        </mxCell>
        <mxCell id="PfO3i7QkF-6IZszXyGAr-30" value="" style="group" vertex="1" connectable="0" parent="PfO3i7QkF-6IZszXyGAr-32">
          <mxGeometry x="27" y="25" width="138" height="191" as="geometry" />
        </mxCell>
        <mxCell id="PfO3i7QkF-6IZszXyGAr-29" value="" style="group" vertex="1" connectable="0" parent="PfO3i7QkF-6IZszXyGAr-30">
          <mxGeometry width="138" height="191" as="geometry" />
        </mxCell>
        <mxCell id="nyhRWvDR_UMMaSh7DpGi-9" value="" style="rounded=1;whiteSpace=wrap;html=1;dashed=1;strokeColor=none;fillColor=#f5f5f5;fontColor=#333333;" parent="PfO3i7QkF-6IZszXyGAr-29" vertex="1">
          <mxGeometry width="138" height="188" as="geometry" />
        </mxCell>
        <mxCell id="YKMA5u9mrC6U9L60gqhi-23" value="GatewaySubnet" style="text;html=1;strokeColor=none;fillColor=none;align=left;verticalAlign=middle;whiteSpace=wrap;rounded=0;" parent="PfO3i7QkF-6IZszXyGAr-29" vertex="1">
          <mxGeometry x="20.75" y="161" width="96.5" height="30" as="geometry" />
        </mxCell>
        <mxCell id="nyhRWvDR_UMMaSh7DpGi-7" value="" style="group" parent="PfO3i7QkF-6IZszXyGAr-30" vertex="1" connectable="0">
          <mxGeometry x="37.5" y="10" width="60" height="80" as="geometry" />
        </mxCell>
        <mxCell id="PfO3i7QkF-6IZszXyGAr-28" value="" style="group" vertex="1" connectable="0" parent="nyhRWvDR_UMMaSh7DpGi-7">
          <mxGeometry width="60" height="80" as="geometry" />
        </mxCell>
        <mxCell id="YKMA5u9mrC6U9L60gqhi-22" value="" style="sketch=0;aspect=fixed;html=1;points=[];align=center;image;fontSize=12;image=img/lib/mscae/VPN_Gateway.svg;dashed=1;strokeColor=#29b6f2;fillColor=none;" parent="PfO3i7QkF-6IZszXyGAr-28" vertex="1">
          <mxGeometry x="7.5" width="45" height="50" as="geometry" />
        </mxCell>
        <mxCell id="YKMA5u9mrC6U9L60gqhi-24" value="VNG01" style="text;html=1;strokeColor=none;fillColor=none;align=center;verticalAlign=middle;whiteSpace=wrap;rounded=0;" parent="PfO3i7QkF-6IZszXyGAr-28" vertex="1">
          <mxGeometry y="50" width="60" height="30" as="geometry" />
        </mxCell>
        <mxCell id="CbcyjJdWPYXVk5X4PJu4-3" value="" style="group" parent="PfO3i7QkF-6IZszXyGAr-30" vertex="1" connectable="0">
          <mxGeometry x="37.5" y="87" width="60" height="74" as="geometry" />
        </mxCell>
        <mxCell id="CbcyjJdWPYXVk5X4PJu4-1" value="" style="image;aspect=fixed;html=1;points=[];align=center;fontSize=12;image=img/lib/azure2/networking/Local_Network_Gateways.svg;" parent="CbcyjJdWPYXVk5X4PJu4-3" vertex="1">
          <mxGeometry x="4" width="49" height="49" as="geometry" />
        </mxCell>
        <mxCell id="CbcyjJdWPYXVk5X4PJu4-2" value="LNG01" style="text;html=1;strokeColor=none;fillColor=none;align=center;verticalAlign=middle;whiteSpace=wrap;rounded=0;" parent="CbcyjJdWPYXVk5X4PJu4-3" vertex="1">
          <mxGeometry y="44" width="60" height="30" as="geometry" />
        </mxCell>
        <mxCell id="PfO3i7QkF-6IZszXyGAr-8" value="" style="group" vertex="1" connectable="0" parent="1">
          <mxGeometry x="640" y="119" width="546.5" height="263" as="geometry" />
        </mxCell>
        <mxCell id="PfO3i7QkF-6IZszXyGAr-9" value="" style="group" vertex="1" connectable="0" parent="PfO3i7QkF-6IZszXyGAr-8">
          <mxGeometry width="546.5" height="263" as="geometry" />
        </mxCell>
        <mxCell id="CbcyjJdWPYXVk5X4PJu4-7" value="" style="rounded=1;whiteSpace=wrap;html=1;dashed=1;fillColor=none;strokeColor=#29b6f2;" parent="PfO3i7QkF-6IZszXyGAr-9" vertex="1">
          <mxGeometry width="546.5" height="263" as="geometry" />
        </mxCell>
        <mxCell id="CbcyjJdWPYXVk5X4PJu4-19" value="VNET-SPOKE01" style="text;html=1;strokeColor=none;fillColor=none;align=left;verticalAlign=middle;whiteSpace=wrap;rounded=0;" parent="PfO3i7QkF-6IZszXyGAr-9" vertex="1">
          <mxGeometry x="13.5" y="229" width="96.5" height="30" as="geometry" />
        </mxCell>
        <mxCell id="nyhRWvDR_UMMaSh7DpGi-125" value="" style="group" parent="PfO3i7QkF-6IZszXyGAr-9" vertex="1" connectable="0">
          <mxGeometry x="200" y="57.210000000000036" width="192" height="148.57000000000005" as="geometry" />
        </mxCell>
        <mxCell id="nyhRWvDR_UMMaSh7DpGi-118" value="" style="rounded=1;whiteSpace=wrap;html=1;dashed=1;strokeColor=none;fillColor=#f5f5f5;fontColor=#333333;" parent="nyhRWvDR_UMMaSh7DpGi-125" vertex="1">
          <mxGeometry x="15" width="177" height="125" as="geometry" />
        </mxCell>
        <mxCell id="nyhRWvDR_UMMaSh7DpGi-119" value="" style="aspect=fixed;html=1;points=[];align=center;image;fontSize=12;image=img/lib/azure2/compute/VM_Scale_Sets.svg;strokeColor=#4a97e9;fontColor=default;fillColor=none;" parent="nyhRWvDR_UMMaSh7DpGi-125" vertex="1">
          <mxGeometry x="108.0018796992481" y="15" width="68" height="68" as="geometry" />
        </mxCell>
        <mxCell id="nyhRWvDR_UMMaSh7DpGi-120" value="SUB-Integra" style="text;html=1;strokeColor=none;fillColor=none;align=left;verticalAlign=middle;whiteSpace=wrap;rounded=0;" parent="nyhRWvDR_UMMaSh7DpGi-125" vertex="1">
          <mxGeometry x="22" y="6" width="71" height="22" as="geometry" />
        </mxCell>
        <mxCell id="nyhRWvDR_UMMaSh7DpGi-121" value="Scale-Integra" style="text;html=1;strokeColor=none;fillColor=none;align=left;verticalAlign=middle;whiteSpace=wrap;rounded=0;" parent="nyhRWvDR_UMMaSh7DpGi-125" vertex="1">
          <mxGeometry x="108" y="82.99999999999989" width="77" height="22" as="geometry" />
        </mxCell>
        <mxCell id="nyhRWvDR_UMMaSh7DpGi-122" value="" style="aspect=fixed;html=1;points=[];align=center;image;fontSize=12;image=img/lib/azure2/networking/Network_Security_Groups.svg;fillColor=#00188d;" parent="nyhRWvDR_UMMaSh7DpGi-125" vertex="1">
          <mxGeometry y="100" width="40" height="48.57" as="geometry" />
        </mxCell>
        <mxCell id="nyhRWvDR_UMMaSh7DpGi-123" value="" style="aspect=fixed;html=1;points=[];align=center;image;fontSize=12;image=img/lib/azure2/networking/Load_Balancers.svg;strokeColor=#4a97e9;fontColor=default;fillColor=none;" parent="nyhRWvDR_UMMaSh7DpGi-125" vertex="1">
          <mxGeometry x="36.19999999999982" y="40.40715083798875" width="42.59580419580419" height="42.59580419580419" as="geometry" />
        </mxCell>
        <mxCell id="PfO3i7QkF-6IZszXyGAr-2" value="" style="group" vertex="1" connectable="0" parent="1">
          <mxGeometry x="651.5" y="864" width="546.5" height="263" as="geometry" />
        </mxCell>
        <mxCell id="nyhRWvDR_UMMaSh7DpGi-15" value="VNET-SPOKE03" style="text;html=1;strokeColor=none;fillColor=none;align=left;verticalAlign=middle;whiteSpace=wrap;rounded=0;" parent="PfO3i7QkF-6IZszXyGAr-2" vertex="1">
          <mxGeometry x="29.5" y="225.56999999999994" width="96.5" height="30" as="geometry" />
        </mxCell>
        <mxCell id="PfO3i7QkF-6IZszXyGAr-7" value="" style="group" vertex="1" connectable="0" parent="PfO3i7QkF-6IZszXyGAr-2">
          <mxGeometry width="546.5" height="263" as="geometry" />
        </mxCell>
        <mxCell id="PfO3i7QkF-6IZszXyGAr-1" value="" style="rounded=1;whiteSpace=wrap;html=1;dashed=1;fillColor=none;strokeColor=#29b6f2;" vertex="1" parent="PfO3i7QkF-6IZszXyGAr-7">
          <mxGeometry width="546.5" height="263" as="geometry" />
        </mxCell>
        <mxCell id="nyhRWvDR_UMMaSh7DpGi-126" value="" style="group" parent="PfO3i7QkF-6IZszXyGAr-7" vertex="1" connectable="0">
          <mxGeometry x="177.25" y="60.000000000000114" width="192" height="148.57000000000005" as="geometry" />
        </mxCell>
        <mxCell id="nyhRWvDR_UMMaSh7DpGi-135" value="" style="group" parent="nyhRWvDR_UMMaSh7DpGi-126" vertex="1" connectable="0">
          <mxGeometry width="192" height="148.57" as="geometry" />
        </mxCell>
        <mxCell id="nyhRWvDR_UMMaSh7DpGi-127" value="" style="rounded=1;whiteSpace=wrap;html=1;dashed=1;strokeColor=none;fillColor=#f5f5f5;fontColor=#333333;" parent="nyhRWvDR_UMMaSh7DpGi-135" vertex="1">
          <mxGeometry x="15" width="177" height="125" as="geometry" />
        </mxCell>
        <mxCell id="nyhRWvDR_UMMaSh7DpGi-129" value="SUB-Data" style="text;html=1;strokeColor=none;fillColor=none;align=left;verticalAlign=middle;whiteSpace=wrap;rounded=0;" parent="nyhRWvDR_UMMaSh7DpGi-135" vertex="1">
          <mxGeometry x="22" y="6" width="71" height="22" as="geometry" />
        </mxCell>
        <mxCell id="nyhRWvDR_UMMaSh7DpGi-130" value="Database" style="text;html=1;strokeColor=none;fillColor=none;align=left;verticalAlign=middle;whiteSpace=wrap;rounded=0;" parent="nyhRWvDR_UMMaSh7DpGi-135" vertex="1">
          <mxGeometry x="108" y="82.99999999999989" width="77" height="22" as="geometry" />
        </mxCell>
        <mxCell id="nyhRWvDR_UMMaSh7DpGi-131" value="" style="aspect=fixed;html=1;points=[];align=center;image;fontSize=12;image=img/lib/azure2/networking/Network_Security_Groups.svg;fillColor=#00188d;" parent="nyhRWvDR_UMMaSh7DpGi-135" vertex="1">
          <mxGeometry y="100" width="40" height="48.57" as="geometry" />
        </mxCell>
        <mxCell id="nyhRWvDR_UMMaSh7DpGi-132" value="" style="aspect=fixed;html=1;points=[];align=center;image;fontSize=12;image=img/lib/azure2/networking/Load_Balancers.svg;strokeColor=#4a97e9;fontColor=default;fillColor=none;" parent="nyhRWvDR_UMMaSh7DpGi-135" vertex="1">
          <mxGeometry x="36.19999999999982" y="40.40715083798875" width="42.59580419580419" height="42.59580419580419" as="geometry" />
        </mxCell>
        <mxCell id="nyhRWvDR_UMMaSh7DpGi-134" value="" style="aspect=fixed;html=1;points=[];align=center;image;fontSize=12;image=img/lib/azure2/databases/SQL_Server.svg;strokeColor=#4a97e9;fontColor=default;fillColor=none;" parent="nyhRWvDR_UMMaSh7DpGi-135" vertex="1">
          <mxGeometry x="112.5" y="9.999999999999886" width="68" height="68" as="geometry" />
        </mxCell>
        <mxCell id="PfO3i7QkF-6IZszXyGAr-3" style="edgeStyle=orthogonalEdgeStyle;rounded=0;orthogonalLoop=1;jettySize=auto;html=1;entryX=0.5;entryY=0;entryDx=0;entryDy=0;" edge="1" parent="1" source="CbcyjJdWPYXVk5X4PJu4-6" target="PfO3i7QkF-6IZszXyGAr-1">
          <mxGeometry relative="1" as="geometry" />
        </mxCell>
        <mxCell id="CbcyjJdWPYXVk5X4PJu4-24" style="edgeStyle=orthogonalEdgeStyle;rounded=0;orthogonalLoop=1;jettySize=auto;html=1;entryX=0.001;entryY=0.441;entryDx=0;entryDy=0;entryPerimeter=0;" parent="1" source="YKMA5u9mrC6U9L60gqhi-1" target="CbcyjJdWPYXVk5X4PJu4-6" edge="1">
          <mxGeometry relative="1" as="geometry" />
        </mxCell>
        <mxCell id="PfO3i7QkF-6IZszXyGAr-4" style="edgeStyle=orthogonalEdgeStyle;rounded=0;orthogonalLoop=1;jettySize=auto;html=1;entryX=0;entryY=0.5;entryDx=0;entryDy=0;" edge="1" parent="1" source="YKMA5u9mrC6U9L60gqhi-1" target="PfO3i7QkF-6IZszXyGAr-1">
          <mxGeometry relative="1" as="geometry">
            <Array as="points">
              <mxPoint x="291" y="996" />
            </Array>
          </mxGeometry>
        </mxCell>
        <mxCell id="nyhRWvDR_UMMaSh7DpGi-4" value="" style="rounded=1;whiteSpace=wrap;html=1;dashed=1;fillColor=none;strokeColor=#29b6f2;" parent="1" vertex="1">
          <mxGeometry x="-436" y="546" width="237" height="224" as="geometry" />
        </mxCell>
        <mxCell id="YKMA5u9mrC6U9L60gqhi-17" value="" style="rounded=1;whiteSpace=wrap;html=1;dashed=1;fillColor=none;strokeColor=#29b6f2;" parent="1" vertex="1">
          <mxGeometry x="-436" y="780" width="237" height="224" as="geometry" />
        </mxCell>
        <mxCell id="nyhRWvDR_UMMaSh7DpGi-3" value="" style="group;fontSize=15;" parent="1" vertex="1" connectable="0">
          <mxGeometry x="-366" y="852" width="97" height="86" as="geometry" />
        </mxCell>
        <mxCell id="YKMA5u9mrC6U9L60gqhi-28" value="AD-Onpremises" style="text;html=1;strokeColor=none;fillColor=none;align=center;verticalAlign=middle;whiteSpace=wrap;rounded=0;" parent="nyhRWvDR_UMMaSh7DpGi-3" vertex="1">
          <mxGeometry y="56" width="97" height="30" as="geometry" />
        </mxCell>
        <mxCell id="nyhRWvDR_UMMaSh7DpGi-2" value="" style="sketch=0;pointerEvents=1;shadow=0;dashed=0;html=1;strokeColor=none;fillColor=#00188d;labelPosition=center;verticalLabelPosition=bottom;verticalAlign=top;outlineConnect=0;align=center;shape=mxgraph.office.servers.active_directory_federation_services_server_blue;" parent="nyhRWvDR_UMMaSh7DpGi-3" vertex="1">
          <mxGeometry x="26" width="45" height="56" as="geometry" />
        </mxCell>
        <mxCell id="nyhRWvDR_UMMaSh7DpGi-5" value="" style="group" parent="1" vertex="1" connectable="0">
          <mxGeometry x="-354" y="612" width="70" height="90" as="geometry" />
        </mxCell>
        <mxCell id="YKMA5u9mrC6U9L60gqhi-27" value="AD-Connect" style="text;html=1;strokeColor=none;fillColor=none;align=center;verticalAlign=middle;whiteSpace=wrap;rounded=0;" parent="nyhRWvDR_UMMaSh7DpGi-5" vertex="1">
          <mxGeometry y="60" width="70" height="30" as="geometry" />
        </mxCell>
        <mxCell id="nyhRWvDR_UMMaSh7DpGi-1" value="" style="sketch=0;pointerEvents=1;shadow=0;dashed=0;html=1;strokeColor=none;fillColor=#00188d;labelPosition=center;verticalLabelPosition=bottom;verticalAlign=top;outlineConnect=0;align=center;shape=mxgraph.office.servers.active_directory_federation_services_server_blue;" parent="nyhRWvDR_UMMaSh7DpGi-5" vertex="1">
          <mxGeometry x="12.5" width="45" height="56" as="geometry" />
        </mxCell>
        <mxCell id="nyhRWvDR_UMMaSh7DpGi-19" value="" style="rounded=0;whiteSpace=wrap;html=1;fillColor=none;fontColor=default;strokeColor=#4a97e9;" parent="1" vertex="1">
          <mxGeometry x="33" y="32" width="315" height="141" as="geometry" />
        </mxCell>
        <mxCell id="nyhRWvDR_UMMaSh7DpGi-20" style="edgeStyle=orthogonalEdgeStyle;rounded=0;orthogonalLoop=1;jettySize=auto;html=1;entryX=0;entryY=0.5;entryDx=0;entryDy=0;fontColor=default;" parent="1" source="nyhRWvDR_UMMaSh7DpGi-1" target="nyhRWvDR_UMMaSh7DpGi-19" edge="1">
          <mxGeometry relative="1" as="geometry">
            <Array as="points">
              <mxPoint x="-507" y="640" />
              <mxPoint x="-507" y="103" />
            </Array>
          </mxGeometry>
        </mxCell>
        <mxCell id="nyhRWvDR_UMMaSh7DpGi-21" style="edgeStyle=orthogonalEdgeStyle;rounded=0;orthogonalLoop=1;jettySize=auto;html=1;fontColor=default;" parent="1" edge="1">
          <mxGeometry relative="1" as="geometry">
            <mxPoint x="-341" y="880" as="sourcePoint" />
            <mxPoint x="-342.5" y="640.0000000000002" as="targetPoint" />
            <Array as="points">
              <mxPoint x="-507" y="880" />
              <mxPoint x="-507" y="640" />
            </Array>
          </mxGeometry>
        </mxCell>
        <mxCell id="nyhRWvDR_UMMaSh7DpGi-24" value="" style="group" parent="1" vertex="1" connectable="0">
          <mxGeometry x="44.75" y="55" width="96.5" height="97.5" as="geometry" />
        </mxCell>
        <mxCell id="nyhRWvDR_UMMaSh7DpGi-22" value="" style="aspect=fixed;html=1;points=[];align=center;image;fontSize=12;image=img/lib/azure2/identity/Azure_AD_Domain_Services.svg;strokeColor=#4a97e9;fontColor=default;fillColor=none;" parent="nyhRWvDR_UMMaSh7DpGi-24" vertex="1">
          <mxGeometry x="13.25" width="70" height="64" as="geometry" />
        </mxCell>
        <mxCell id="nyhRWvDR_UMMaSh7DpGi-23" value="Azure Active Directory" style="text;html=1;strokeColor=none;fillColor=none;align=center;verticalAlign=middle;whiteSpace=wrap;rounded=0;" parent="nyhRWvDR_UMMaSh7DpGi-24" vertex="1">
          <mxGeometry y="67.5" width="96.5" height="30" as="geometry" />
        </mxCell>
        <mxCell id="nyhRWvDR_UMMaSh7DpGi-27" value="" style="aspect=fixed;html=1;points=[];align=center;image;fontSize=12;image=img/lib/azure2/identity/Groups.svg;strokeColor=#4a97e9;fontColor=default;fillColor=none;" parent="1" vertex="1">
          <mxGeometry x="150" y="68.62" width="78.32" height="64.5" as="geometry" />
        </mxCell>
        <mxCell id="o30hu_h_-VP9C0Kiq-pR-8" value="" style="group" parent="1" vertex="1" connectable="0">
          <mxGeometry x="1330" y="291" width="96.5" height="75.97" as="geometry" />
        </mxCell>
        <mxCell id="nyhRWvDR_UMMaSh7DpGi-67" value="" style="aspect=fixed;html=1;points=[];align=center;image;fontSize=12;image=img/lib/azure2/storage/Storage_Accounts.svg;strokeColor=#4a97e9;fontColor=default;fillColor=none;" parent="o30hu_h_-VP9C0Kiq-pR-8" vertex="1">
          <mxGeometry x="17.190000000000055" width="62.12" height="49.7" as="geometry" />
        </mxCell>
        <mxCell id="nyhRWvDR_UMMaSh7DpGi-69" value="Storage-Imagens" style="text;html=1;strokeColor=none;fillColor=none;align=center;verticalAlign=middle;whiteSpace=wrap;rounded=0;" parent="o30hu_h_-VP9C0Kiq-pR-8" vertex="1">
          <mxGeometry y="55.72" width="96.5" height="20.25" as="geometry" />
        </mxCell>
        <mxCell id="CbcyjJdWPYXVk5X4PJu4-22" style="edgeStyle=orthogonalEdgeStyle;rounded=0;orthogonalLoop=1;jettySize=auto;html=1;" parent="1" source="CbcyjJdWPYXVk5X4PJu4-7" target="YKMA5u9mrC6U9L60gqhi-1" edge="1">
          <mxGeometry relative="1" as="geometry" />
        </mxCell>
        <mxCell id="CbcyjJdWPYXVk5X4PJu4-26" value="" style="outlineConnect=0;dashed=0;verticalLabelPosition=bottom;verticalAlign=top;align=center;html=1;shape=mxgraph.aws3.internet_3;fillColor=#1ba1e2;strokeColor=#006EAF;fontColor=#ffffff;" parent="1" vertex="1">
          <mxGeometry x="1423.5" y="60" width="79.5" height="54" as="geometry" />
        </mxCell>
        <mxCell id="PfO3i7QkF-6IZszXyGAr-5" value="" style="group" vertex="1" connectable="0" parent="1">
          <mxGeometry x="652" y="456" width="546.5" height="362" as="geometry" />
        </mxCell>
        <mxCell id="nyhRWvDR_UMMaSh7DpGi-14" value="VNET-SPOKE02" style="text;html=1;strokeColor=none;fillColor=none;align=left;verticalAlign=middle;whiteSpace=wrap;rounded=0;" parent="PfO3i7QkF-6IZszXyGAr-5" vertex="1">
          <mxGeometry x="37.5" y="328.5665399239544" width="96.5" height="41.29277566539924" as="geometry" />
        </mxCell>
        <mxCell id="CbcyjJdWPYXVk5X4PJu4-8" value="" style="group" parent="PfO3i7QkF-6IZszXyGAr-5" vertex="1" connectable="0">
          <mxGeometry x="49.99999999999977" y="15" width="192" height="148.57000000000005" as="geometry" />
        </mxCell>
        <mxCell id="CbcyjJdWPYXVk5X4PJu4-9" value="" style="rounded=1;whiteSpace=wrap;html=1;dashed=1;strokeColor=none;fillColor=#f5f5f5;fontColor=#333333;" parent="CbcyjJdWPYXVk5X4PJu4-8" vertex="1">
          <mxGeometry x="15" width="177" height="125" as="geometry" />
        </mxCell>
        <mxCell id="CbcyjJdWPYXVk5X4PJu4-10" value="" style="aspect=fixed;html=1;points=[];align=center;image;fontSize=12;image=img/lib/azure2/compute/VM_Scale_Sets.svg;strokeColor=#4a97e9;fontColor=default;fillColor=none;" parent="CbcyjJdWPYXVk5X4PJu4-8" vertex="1">
          <mxGeometry x="108.0018796992481" y="15" width="68" height="68" as="geometry" />
        </mxCell>
        <mxCell id="CbcyjJdWPYXVk5X4PJu4-11" value="SUB-Front" style="text;html=1;strokeColor=none;fillColor=none;align=left;verticalAlign=middle;whiteSpace=wrap;rounded=0;" parent="CbcyjJdWPYXVk5X4PJu4-8" vertex="1">
          <mxGeometry x="22" y="6" width="71" height="22" as="geometry" />
        </mxCell>
        <mxCell id="CbcyjJdWPYXVk5X4PJu4-12" value="Scale-Front" style="text;html=1;strokeColor=none;fillColor=none;align=left;verticalAlign=middle;whiteSpace=wrap;rounded=0;" parent="CbcyjJdWPYXVk5X4PJu4-8" vertex="1">
          <mxGeometry x="108" y="83" width="71" height="22" as="geometry" />
        </mxCell>
        <mxCell id="CbcyjJdWPYXVk5X4PJu4-13" value="" style="aspect=fixed;html=1;points=[];align=center;image;fontSize=12;image=img/lib/azure2/networking/Network_Security_Groups.svg;fillColor=#00188d;" parent="CbcyjJdWPYXVk5X4PJu4-8" vertex="1">
          <mxGeometry y="100" width="40" height="48.57" as="geometry" />
        </mxCell>
        <mxCell id="nyhRWvDR_UMMaSh7DpGi-124" value="" style="group" parent="PfO3i7QkF-6IZszXyGAr-5" vertex="1" connectable="0">
          <mxGeometry x="49.99999999999977" y="175" width="192" height="148.57000000000005" as="geometry" />
        </mxCell>
        <mxCell id="nyhRWvDR_UMMaSh7DpGi-111" value="" style="rounded=1;whiteSpace=wrap;html=1;dashed=1;strokeColor=none;fillColor=#f5f5f5;fontColor=#333333;" parent="nyhRWvDR_UMMaSh7DpGi-124" vertex="1">
          <mxGeometry x="15" width="177" height="125" as="geometry" />
        </mxCell>
        <mxCell id="nyhRWvDR_UMMaSh7DpGi-112" value="" style="aspect=fixed;html=1;points=[];align=center;image;fontSize=12;image=img/lib/azure2/compute/VM_Scale_Sets.svg;strokeColor=#4a97e9;fontColor=default;fillColor=none;" parent="nyhRWvDR_UMMaSh7DpGi-124" vertex="1">
          <mxGeometry x="108.0018796992481" y="15" width="68" height="68" as="geometry" />
        </mxCell>
        <mxCell id="nyhRWvDR_UMMaSh7DpGi-114" value="SUB-Back" style="text;html=1;strokeColor=none;fillColor=none;align=left;verticalAlign=middle;whiteSpace=wrap;rounded=0;" parent="nyhRWvDR_UMMaSh7DpGi-124" vertex="1">
          <mxGeometry x="22" y="6" width="71" height="22" as="geometry" />
        </mxCell>
        <mxCell id="nyhRWvDR_UMMaSh7DpGi-115" value="Scale-Back" style="text;html=1;strokeColor=none;fillColor=none;align=left;verticalAlign=middle;whiteSpace=wrap;rounded=0;" parent="nyhRWvDR_UMMaSh7DpGi-124" vertex="1">
          <mxGeometry x="108" y="83" width="71" height="22" as="geometry" />
        </mxCell>
        <mxCell id="nyhRWvDR_UMMaSh7DpGi-116" value="" style="aspect=fixed;html=1;points=[];align=center;image;fontSize=12;image=img/lib/azure2/networking/Network_Security_Groups.svg;fillColor=#00188d;" parent="nyhRWvDR_UMMaSh7DpGi-124" vertex="1">
          <mxGeometry y="100" width="40" height="48.57" as="geometry" />
        </mxCell>
        <mxCell id="PfO3i7QkF-6IZszXyGAr-16" value="" style="group" vertex="1" connectable="0" parent="PfO3i7QkF-6IZszXyGAr-5">
          <mxGeometry x="332.9999999999998" y="101" width="192" height="148.57000000000005" as="geometry" />
        </mxCell>
        <mxCell id="PfO3i7QkF-6IZszXyGAr-17" value="" style="rounded=1;whiteSpace=wrap;html=1;dashed=1;strokeColor=none;fillColor=#f5f5f5;fontColor=#333333;" vertex="1" parent="PfO3i7QkF-6IZszXyGAr-16">
          <mxGeometry x="15" width="177" height="125" as="geometry" />
        </mxCell>
        <mxCell id="PfO3i7QkF-6IZszXyGAr-19" value="SUB-AppGW" style="text;html=1;strokeColor=none;fillColor=none;align=left;verticalAlign=middle;whiteSpace=wrap;rounded=0;" vertex="1" parent="PfO3i7QkF-6IZszXyGAr-16">
          <mxGeometry x="22" y="6" width="76" height="22" as="geometry" />
        </mxCell>
        <mxCell id="PfO3i7QkF-6IZszXyGAr-21" value="" style="aspect=fixed;html=1;points=[];align=center;image;fontSize=12;image=img/lib/azure2/networking/Network_Security_Groups.svg;fillColor=#00188d;" vertex="1" parent="PfO3i7QkF-6IZszXyGAr-16">
          <mxGeometry y="100" width="40" height="48.57" as="geometry" />
        </mxCell>
        <mxCell id="PfO3i7QkF-6IZszXyGAr-24" value="" style="group" vertex="1" connectable="0" parent="PfO3i7QkF-6IZszXyGAr-16">
          <mxGeometry x="62.001521739130794" y="38.89066278665109" width="56.33695652173901" height="70.78316700058292" as="geometry" />
        </mxCell>
        <mxCell id="nyhRWvDR_UMMaSh7DpGi-39" value="" style="aspect=fixed;html=1;points=[];align=center;image;fontSize=12;image=img/lib/azure2/networking/Application_Gateways.svg;strokeColor=#4a97e9;fontColor=default;fillColor=none;" parent="PfO3i7QkF-6IZszXyGAr-24" vertex="1">
          <mxGeometry x="2.777173913043498" width="50.78260869565217" height="50.78260869565217" as="geometry" />
        </mxCell>
        <mxCell id="nyhRWvDR_UMMaSh7DpGi-48" value="AppGw1" style="text;html=1;strokeColor=none;fillColor=none;align=center;verticalAlign=middle;whiteSpace=wrap;rounded=0;" parent="PfO3i7QkF-6IZszXyGAr-24" vertex="1">
          <mxGeometry y="52.94274146866803" width="56.336956521739125" height="17.840425531914892" as="geometry" />
        </mxCell>
        <mxCell id="PfO3i7QkF-6IZszXyGAr-23" value="" style="group" vertex="1" connectable="0" parent="PfO3i7QkF-6IZszXyGAr-16">
          <mxGeometry x="123.0015217391308" y="41.796382978723386" width="56.33695652173901" height="64.968085106383" as="geometry" />
        </mxCell>
        <mxCell id="ZUjUxOUDy-Gs2cX7fSwh-3" value="" style="image;aspect=fixed;html=1;points=[];align=center;fontSize=12;image=img/lib/azure2/networking/Web_Application_Firewall_Policies_WAF.svg;" parent="PfO3i7QkF-6IZszXyGAr-23" vertex="1">
          <mxGeometry x="5.951086956521749" width="44.43478260869565" height="44.43478260869565" as="geometry" />
        </mxCell>
        <mxCell id="ZUjUxOUDy-Gs2cX7fSwh-5" value="WAF" style="text;html=1;strokeColor=none;fillColor=none;align=center;verticalAlign=middle;whiteSpace=wrap;rounded=0;" parent="PfO3i7QkF-6IZszXyGAr-23" vertex="1">
          <mxGeometry y="47.12765957446811" width="56.336956521739125" height="17.840425531914892" as="geometry" />
        </mxCell>
        <mxCell id="PfO3i7QkF-6IZszXyGAr-27" value="" style="group" vertex="1" connectable="0" parent="PfO3i7QkF-6IZszXyGAr-5">
          <mxGeometry width="546.5" height="362" as="geometry" />
        </mxCell>
        <mxCell id="CbcyjJdWPYXVk5X4PJu4-6" value="" style="rounded=1;whiteSpace=wrap;html=1;dashed=1;fillColor=none;strokeColor=#29b6f2;" parent="PfO3i7QkF-6IZszXyGAr-27" vertex="1">
          <mxGeometry width="546.5" height="362" as="geometry" />
        </mxCell>
        <mxCell id="PfO3i7QkF-6IZszXyGAr-25" style="edgeStyle=orthogonalEdgeStyle;rounded=0;orthogonalLoop=1;jettySize=auto;html=1;entryX=1;entryY=0.25;entryDx=0;entryDy=0;dashed=1;dashPattern=1 1;fillColor=#d5e8d4;strokeColor=#6dad2a;" edge="1" parent="PfO3i7QkF-6IZszXyGAr-27" source="PfO3i7QkF-6IZszXyGAr-17" target="CbcyjJdWPYXVk5X4PJu4-9">
          <mxGeometry relative="1" as="geometry">
            <Array as="points">
              <mxPoint x="437" y="46" />
            </Array>
          </mxGeometry>
        </mxCell>
        <mxCell id="PfO3i7QkF-6IZszXyGAr-26" style="edgeStyle=orthogonalEdgeStyle;rounded=0;orthogonalLoop=1;jettySize=auto;html=1;entryX=1;entryY=0.75;entryDx=0;entryDy=0;dashed=1;dashPattern=1 1;fillColor=#d5e8d4;strokeColor=#6dad2a;" edge="1" parent="PfO3i7QkF-6IZszXyGAr-27" source="PfO3i7QkF-6IZszXyGAr-17" target="nyhRWvDR_UMMaSh7DpGi-111">
          <mxGeometry relative="1" as="geometry">
            <Array as="points">
              <mxPoint x="437" y="269" />
            </Array>
          </mxGeometry>
        </mxCell>
        <mxCell id="PfO3i7QkF-6IZszXyGAr-33" value="" style="verticalLabelPosition=bottom;html=1;verticalAlign=top;align=center;strokeColor=none;fillColor=#000000;shape=mxgraph.azure.enterprise;pointerEvents=1;" vertex="1" parent="1">
          <mxGeometry x="-672" y="610" width="135.6" height="226" as="geometry" />
        </mxCell>
        <mxCell id="PfO3i7QkF-6IZszXyGAr-34" value="On-Premises" style="text;html=1;strokeColor=none;fillColor=none;align=center;verticalAlign=middle;whiteSpace=wrap;rounded=0;fontSize=22;" vertex="1" parent="1">
          <mxGeometry x="-698.1999999999999" y="841" width="188" height="30" as="geometry" />
        </mxCell>
        <mxCell id="PfO3i7QkF-6IZszXyGAr-39" value="" style="group" vertex="1" connectable="0" parent="1">
          <mxGeometry x="1464.08" y="291" width="96.5" height="75.97000000000003" as="geometry" />
        </mxCell>
        <mxCell id="nyhRWvDR_UMMaSh7DpGi-77" value="" style="sketch=0;aspect=fixed;html=1;points=[];align=center;image;fontSize=12;image=img/lib/mscae/Backup.svg;strokeColor=#4a97e9;fontColor=default;fillColor=none;" parent="PfO3i7QkF-6IZszXyGAr-39" vertex="1">
          <mxGeometry x="14.920000000000073" width="66.67" height="56" as="geometry" />
        </mxCell>
        <mxCell id="PfO3i7QkF-6IZszXyGAr-38" value="RSV-Backup" style="text;html=1;strokeColor=none;fillColor=none;align=center;verticalAlign=middle;whiteSpace=wrap;rounded=0;" vertex="1" parent="PfO3i7QkF-6IZszXyGAr-39">
          <mxGeometry y="55.72000000000003" width="96.5" height="20.25" as="geometry" />
        </mxCell>
        <mxCell id="PfO3i7QkF-6IZszXyGAr-41" value="" style="group" vertex="1" connectable="0" parent="1">
          <mxGeometry x="1327" y="379" width="96.5" height="84.38" as="geometry" />
        </mxCell>
        <mxCell id="nyhRWvDR_UMMaSh7DpGi-70" value="" style="aspect=fixed;html=1;points=[];align=center;image;fontSize=12;image=img/lib/azure2/networking/DNS_Zones.svg;strokeColor=#4a97e9;fontColor=default;fillColor=none;" parent="PfO3i7QkF-6IZszXyGAr-41" vertex="1">
          <mxGeometry x="20" width="59" height="59" as="geometry" />
        </mxCell>
        <mxCell id="nyhRWvDR_UMMaSh7DpGi-73" value="skynetcloud.com" style="text;html=1;strokeColor=none;fillColor=none;align=center;verticalAlign=middle;whiteSpace=wrap;rounded=0;" parent="PfO3i7QkF-6IZszXyGAr-41" vertex="1">
          <mxGeometry y="64.13" width="96.5" height="20.25" as="geometry" />
        </mxCell>
        <mxCell id="PfO3i7QkF-6IZszXyGAr-42" value="" style="group" vertex="1" connectable="0" parent="1">
          <mxGeometry x="1458.99" y="379" width="96.5" height="84.38" as="geometry" />
        </mxCell>
        <mxCell id="nyhRWvDR_UMMaSh7DpGi-71" value="" style="aspect=fixed;html=1;points=[];align=center;image;fontSize=12;image=img/lib/azure2/security/Key_Vaults.svg;strokeColor=#4a97e9;fontColor=default;fillColor=none;" parent="PfO3i7QkF-6IZszXyGAr-42" vertex="1">
          <mxGeometry x="19.38000000000011" width="57.75" height="57.75" as="geometry" />
        </mxCell>
        <mxCell id="PfO3i7QkF-6IZszXyGAr-40" value="keyvault" style="text;html=1;strokeColor=none;fillColor=none;align=center;verticalAlign=middle;whiteSpace=wrap;rounded=0;" vertex="1" parent="PfO3i7QkF-6IZszXyGAr-42">
          <mxGeometry y="64.13" width="96.5" height="20.25" as="geometry" />
        </mxCell>
        <mxCell id="PfO3i7QkF-6IZszXyGAr-45" value="" style="group" vertex="1" connectable="0" parent="1">
          <mxGeometry x="1330" y="465.75" width="96.5" height="80.25" as="geometry" />
        </mxCell>
        <mxCell id="kIpkWHlI2Ju_ZOxjI1Kt-13" value="" style="image;aspect=fixed;html=1;points=[];align=center;fontSize=12;image=img/lib/azure2/management_governance/Monitor.svg;" parent="PfO3i7QkF-6IZszXyGAr-45" vertex="1">
          <mxGeometry x="18.25" width="60" height="60" as="geometry" />
        </mxCell>
        <mxCell id="PfO3i7QkF-6IZszXyGAr-44" value="Azure-Monitor" style="text;html=1;strokeColor=none;fillColor=none;align=center;verticalAlign=middle;whiteSpace=wrap;rounded=0;" vertex="1" parent="PfO3i7QkF-6IZszXyGAr-45">
          <mxGeometry y="60" width="96.5" height="20.25" as="geometry" />
        </mxCell>
      </root>
    </mxGraphModel>
  </diagram>
</mxfile>
